<svg width="998" height="306" viewBox="0 0 998 306" fill="none" xmlns="http://www.w3.org/2000/svg">
<g filter="url(#filter0_d_3490_69)">
<circle cx="153" cy="152" r="152" fill="#2754FF"/>
<path d="M173.695 57.6055C209.705 59.9363 244.068 80.744 251.803 119.784L251.98 120.71C257.599 150.933 249.825 178.155 231.559 202.409L230.681 203.562C215.014 223.911 190.103 239.756 166.286 244.83C166.329 244.608 166.369 244.398 166.408 244.206C166.494 243.789 166.583 243.432 166.721 243.109C172.482 229.589 178.246 216.071 184.042 202.567L189.851 189.069C190.484 187.601 191.405 186.205 192.41 184.887L192.846 184.326C203.947 170.292 209.151 154.344 208.125 136.565L208.071 135.717C206.336 110.459 186.373 93.4983 160.848 95.293L159.628 95.3936C154.422 95.8794 149.251 97.1595 143.764 98.207C152.968 84.8686 161.965 71.7808 171.072 58.7666L171.071 58.7656C171.281 58.4681 171.705 58.1566 172.23 57.9248C172.687 57.7231 173.161 57.6093 173.539 57.6016L173.695 57.6055Z" fill="white" stroke="white"/>
<path d="M136.57 59.9268C131.146 74.4418 125.857 88.4661 120.688 102.463L118.437 108.577C116.567 113.665 114.132 118.303 111.017 122.762L110.385 123.651H110.384C100.294 137.612 95.8188 153.302 97.7236 170.494L97.8193 171.314C100.752 195.292 119.929 209.947 144.381 208.806L145.549 208.74C151.203 208.364 156.823 206.866 162.501 205.774C162.376 205.968 162.244 206.166 162.099 206.357C153.677 217.422 145.286 228.503 136.79 239.504L133.143 244.213C132.742 244.728 132.077 245.257 131.34 245.642C130.595 246.03 129.851 246.232 129.298 246.182H129.299C94.4336 243 61.6086 222.815 53.9609 183.819L53.7852 182.895C48.3334 153.359 55.7069 126.421 73.5117 102.558L74.3672 101.424C89.9536 80.996 110.416 67.4099 135.12 60.2441L135.119 60.2432C135.482 60.1384 135.839 60.0734 136.57 59.9268Z" fill="white" stroke="white"/>
</g>
<mask id="path-4-outside-1_3490_69" maskUnits="userSpaceOnUse" x="364" y="33" width="634" height="236" fill="black">
<rect fill="white" x="364" y="33" width="634" height="236"/>
<path d="M460.692 184.693C460.692 217.208 443.331 233.458 408.623 233.458C392.055 233.458 378.332 230.297 367.42 223.979C367.144 223.82 366.992 223.51 367.031 223.193L370.457 194.718C370.527 194.135 371.176 193.821 371.679 194.12C381.939 200.199 394.016 203.226 407.901 203.226C421.304 203.226 427.999 198.107 427.999 187.856C427.999 183.478 425.865 179.868 421.582 177.005C417.3 174.182 412.143 171.733 406.078 169.697C400.032 167.675 393.967 165.232 387.908 162.389C381.863 159.54 376.692 154.988 372.41 148.735C368.134 142.475 366 134.633 366 125.203C366 111.722 370.402 100.87 379.198 92.6415C388.001 84.4394 400.794 80.335 417.579 80.335C430.615 80.335 442.951 82.7817 454.58 87.656C454.901 87.7903 455.096 88.1183 455.066 88.4656L452.55 116.78C452.502 117.324 451.939 117.662 451.436 117.455C441.062 113.182 429.774 111.048 417.579 111.048C405.633 111.048 399.661 115.279 399.661 123.728C399.661 127.792 401.769 131.163 405.958 133.839C410.154 136.535 415.245 138.837 421.218 140.793C427.184 142.755 433.156 145.151 439.142 147.981C445.115 150.83 450.199 155.348 454.395 161.515C458.591 167.722 460.692 175.43 460.692 184.693Z"/>
<path d="M543.882 83.212C543.948 82.8261 544.281 82.5441 544.671 82.5441H580.622C581.009 82.5441 581.34 82.8212 581.41 83.2027L598.982 179.341L602.067 198.49C602.1 198.693 602.274 198.842 602.478 198.842C602.688 198.842 602.866 198.684 602.892 198.475L605.259 179.341L619.944 83.2259C620.004 82.8337 620.34 82.5441 620.735 82.5441H653.69C654.196 82.5441 654.576 83.0101 654.474 83.5082L624.772 229.892C624.696 230.266 624.368 230.535 623.988 230.535H581.96C581.569 230.535 581.235 230.252 581.171 229.865L566.269 140.813L563.66 121.44C563.632 121.229 563.452 121.072 563.24 121.072C563.03 121.072 562.852 121.226 562.821 121.435L559.971 140.813L544.826 229.867C544.76 230.253 544.427 230.535 544.036 230.535H502.018C501.642 230.535 501.316 230.272 501.236 229.902L469.619 83.5181C469.511 83.0173 469.891 82.5441 470.402 82.5441H504.093C504.485 82.5441 504.82 82.8296 504.883 83.2183L520.51 179.341L523.36 198.479C523.391 198.687 523.569 198.842 523.779 198.842C523.985 198.842 524.162 198.692 524.197 198.488L543.882 83.212Z"/>
<path d="M712.791 229.732C712.791 230.175 712.433 230.535 711.991 230.535H677.505C677.063 230.535 676.704 230.175 676.704 229.732V84.2785C676.704 83.8493 677.04 83.4959 677.467 83.4757L711.953 81.843C712.409 81.8214 712.791 82.187 712.791 82.6458V229.732ZM714.733 51.0972C714.733 61.6618 708.105 66.9341 694.874 66.9341C687.92 66.9341 682.836 65.7261 679.608 63.2835C676.373 60.8476 674.762 56.7766 674.762 51.0972C674.762 40.3591 681.45 35 694.874 35C708.105 34.9933 714.733 40.3591 714.733 51.0972Z"/>
<path d="M831.083 155.568C831.083 138.663 829.227 127.251 825.521 121.318C821.809 115.378 815.578 112.408 806.874 112.408C796.614 112.408 789.218 116.331 784.707 124.176C784.638 124.297 784.602 124.434 784.602 124.573V189.986C784.602 190.121 784.636 190.254 784.701 190.372C789.208 198.527 796.354 202.631 806.145 202.631C814.544 202.631 820.795 199.368 824.898 192.868C829.041 186.387 831.083 173.941 831.083 155.568ZM867.402 156.542C867.402 182.069 862.848 201.163 853.727 213.837C844.605 226.517 831.812 232.857 815.353 232.857C802.577 232.857 792.471 229.274 785.088 222.127C784.935 221.98 784.714 221.927 784.512 221.993C784.274 222.072 784.115 222.298 784.122 222.549L784.602 241.873V266.196C784.602 266.64 784.243 267 783.801 267H749.786C749.344 267 748.985 266.64 748.985 266.196V84.388C748.985 83.9655 749.311 83.6152 749.731 83.5862L773.184 81.9652C773.5 81.9433 773.799 82.1106 773.947 82.3918L779.746 93.4231C779.994 93.8944 780.622 93.997 781.013 93.6368C790.717 84.7037 802.465 80.2341 816.32 80.2341C833.429 80.2341 846.216 85.9602 854.708 97.4124C863.166 108.878 867.402 128.586 867.402 156.542Z"/>
<path d="M916.374 140.821C916.344 141.283 916.71 141.673 917.17 141.673H962.733C963.18 141.673 963.54 141.304 963.53 140.856C963.279 130.079 961.241 122.377 957.374 117.781C953.417 113.076 947.729 110.72 940.298 110.72C932.225 110.72 926.371 113.022 922.739 117.654C919.21 122.176 917.087 129.888 916.374 140.821ZM948.293 233.337C924.893 233.337 907.738 226.891 896.84 213.957C885.936 201.043 880.494 181.249 880.494 154.6C880.494 105.021 900.36 80.2341 940.046 80.2341C977.353 80.2341 996 102.978 996 148.5C996 155.3 995.694 160.994 995.128 165.588C995.079 165.988 994.739 166.286 994.338 166.286H917.905C917.448 166.286 917.083 166.673 917.11 167.131C917.838 179.696 920.931 188.558 926.371 193.722C931.953 199.014 940.709 201.65 952.654 201.65C964.428 201.65 975.983 199.491 987.305 195.196C987.791 195.012 988.323 195.328 988.391 195.845L992.053 223.732C992.098 224.075 991.919 224.41 991.607 224.558C979.285 230.417 964.849 233.337 948.293 233.337Z"/>
</mask>
<path d="M460.692 184.693C460.692 217.208 443.331 233.458 408.623 233.458C392.055 233.458 378.332 230.297 367.42 223.979C367.144 223.82 366.992 223.51 367.031 223.193L370.457 194.718C370.527 194.135 371.176 193.821 371.679 194.12C381.939 200.199 394.016 203.226 407.901 203.226C421.304 203.226 427.999 198.107 427.999 187.856C427.999 183.478 425.865 179.868 421.582 177.005C417.3 174.182 412.143 171.733 406.078 169.697C400.032 167.675 393.967 165.232 387.908 162.389C381.863 159.54 376.692 154.988 372.41 148.735C368.134 142.475 366 134.633 366 125.203C366 111.722 370.402 100.87 379.198 92.6415C388.001 84.4394 400.794 80.335 417.579 80.335C430.615 80.335 442.951 82.7817 454.58 87.656C454.901 87.7903 455.096 88.1183 455.066 88.4656L452.55 116.78C452.502 117.324 451.939 117.662 451.436 117.455C441.062 113.182 429.774 111.048 417.579 111.048C405.633 111.048 399.661 115.279 399.661 123.728C399.661 127.792 401.769 131.163 405.958 133.839C410.154 136.535 415.245 138.837 421.218 140.793C427.184 142.755 433.156 145.151 439.142 147.981C445.115 150.83 450.199 155.348 454.395 161.515C458.591 167.722 460.692 175.43 460.692 184.693Z" fill="black"/>
<path d="M543.882 83.212C543.948 82.8261 544.281 82.5441 544.671 82.5441H580.622C581.009 82.5441 581.34 82.8212 581.41 83.2027L598.982 179.341L602.067 198.49C602.1 198.693 602.274 198.842 602.478 198.842C602.688 198.842 602.866 198.684 602.892 198.475L605.259 179.341L619.944 83.2259C620.004 82.8337 620.34 82.5441 620.735 82.5441H653.69C654.196 82.5441 654.576 83.0101 654.474 83.5082L624.772 229.892C624.696 230.266 624.368 230.535 623.988 230.535H581.96C581.569 230.535 581.235 230.252 581.171 229.865L566.269 140.813L563.66 121.44C563.632 121.229 563.452 121.072 563.24 121.072C563.03 121.072 562.852 121.226 562.821 121.435L559.971 140.813L544.826 229.867C544.76 230.253 544.427 230.535 544.036 230.535H502.018C501.642 230.535 501.316 230.272 501.236 229.902L469.619 83.5181C469.511 83.0173 469.891 82.5441 470.402 82.5441H504.093C504.485 82.5441 504.82 82.8296 504.883 83.2183L520.51 179.341L523.36 198.479C523.391 198.687 523.569 198.842 523.779 198.842C523.985 198.842 524.162 198.692 524.197 198.488L543.882 83.212Z" fill="black"/>
<path d="M712.791 229.732C712.791 230.175 712.433 230.535 711.991 230.535H677.505C677.063 230.535 676.704 230.175 676.704 229.732V84.2785C676.704 83.8493 677.04 83.4959 677.467 83.4757L711.953 81.843C712.409 81.8214 712.791 82.187 712.791 82.6458V229.732ZM714.733 51.0972C714.733 61.6618 708.105 66.9341 694.874 66.9341C687.92 66.9341 682.836 65.7261 679.608 63.2835C676.373 60.8476 674.762 56.7766 674.762 51.0972C674.762 40.3591 681.45 35 694.874 35C708.105 34.9933 714.733 40.3591 714.733 51.0972Z" fill="black"/>
<path d="M831.083 155.568C831.083 138.663 829.227 127.251 825.521 121.318C821.809 115.378 815.578 112.408 806.874 112.408C796.614 112.408 789.218 116.331 784.707 124.176C784.638 124.297 784.602 124.434 784.602 124.573V189.986C784.602 190.121 784.636 190.254 784.701 190.372C789.208 198.527 796.354 202.631 806.145 202.631C814.544 202.631 820.795 199.368 824.898 192.868C829.041 186.387 831.083 173.941 831.083 155.568ZM867.402 156.542C867.402 182.069 862.848 201.163 853.727 213.837C844.605 226.517 831.812 232.857 815.353 232.857C802.577 232.857 792.471 229.274 785.088 222.127C784.935 221.98 784.714 221.927 784.512 221.993C784.274 222.072 784.115 222.298 784.122 222.549L784.602 241.873V266.196C784.602 266.64 784.243 267 783.801 267H749.786C749.344 267 748.985 266.64 748.985 266.196V84.388C748.985 83.9655 749.311 83.6152 749.731 83.5862L773.184 81.9652C773.5 81.9433 773.799 82.1106 773.947 82.3918L779.746 93.4231C779.994 93.8944 780.622 93.997 781.013 93.6368C790.717 84.7037 802.465 80.2341 816.32 80.2341C833.429 80.2341 846.216 85.9602 854.708 97.4124C863.166 108.878 867.402 128.586 867.402 156.542Z" fill="black"/>
<path d="M916.374 140.821C916.344 141.283 916.71 141.673 917.17 141.673H962.733C963.18 141.673 963.54 141.304 963.53 140.856C963.279 130.079 961.241 122.377 957.374 117.781C953.417 113.076 947.729 110.72 940.298 110.72C932.225 110.72 926.371 113.022 922.739 117.654C919.21 122.176 917.087 129.888 916.374 140.821ZM948.293 233.337C924.893 233.337 907.738 226.891 896.84 213.957C885.936 201.043 880.494 181.249 880.494 154.6C880.494 105.021 900.36 80.2341 940.046 80.2341C977.353 80.2341 996 102.978 996 148.5C996 155.3 995.694 160.994 995.128 165.588C995.079 165.988 994.739 166.286 994.338 166.286H917.905C917.448 166.286 917.083 166.673 917.11 167.131C917.838 179.696 920.931 188.558 926.371 193.722C931.953 199.014 940.709 201.65 952.654 201.65C964.428 201.65 975.983 199.491 987.305 195.196C987.791 195.012 988.323 195.328 988.391 195.845L992.053 223.732C992.098 224.075 991.919 224.41 991.607 224.558C979.285 230.417 964.849 233.337 948.293 233.337Z" fill="black"/>
<path d="M460.692 184.693C460.692 217.208 443.331 233.458 408.623 233.458C392.055 233.458 378.332 230.297 367.42 223.979C367.144 223.82 366.992 223.51 367.031 223.193L370.457 194.718C370.527 194.135 371.176 193.821 371.679 194.12C381.939 200.199 394.016 203.226 407.901 203.226C421.304 203.226 427.999 198.107 427.999 187.856C427.999 183.478 425.865 179.868 421.582 177.005C417.3 174.182 412.143 171.733 406.078 169.697C400.032 167.675 393.967 165.232 387.908 162.389C381.863 159.54 376.692 154.988 372.41 148.735C368.134 142.475 366 134.633 366 125.203C366 111.722 370.402 100.87 379.198 92.6415C388.001 84.4394 400.794 80.335 417.579 80.335C430.615 80.335 442.951 82.7817 454.58 87.656C454.901 87.7903 455.096 88.1183 455.066 88.4656L452.55 116.78C452.502 117.324 451.939 117.662 451.436 117.455C441.062 113.182 429.774 111.048 417.579 111.048C405.633 111.048 399.661 115.279 399.661 123.728C399.661 127.792 401.769 131.163 405.958 133.839C410.154 136.535 415.245 138.837 421.218 140.793C427.184 142.755 433.156 145.151 439.142 147.981C445.115 150.83 450.199 155.348 454.395 161.515C458.591 167.722 460.692 175.43 460.692 184.693Z" stroke="black" stroke-width="3.2" mask="url(#path-4-outside-1_3490_69)"/>
<path d="M543.882 83.212C543.948 82.8261 544.281 82.5441 544.671 82.5441H580.622C581.009 82.5441 581.34 82.8212 581.41 83.2027L598.982 179.341L602.067 198.49C602.1 198.693 602.274 198.842 602.478 198.842C602.688 198.842 602.866 198.684 602.892 198.475L605.259 179.341L619.944 83.2259C620.004 82.8337 620.34 82.5441 620.735 82.5441H653.69C654.196 82.5441 654.576 83.0101 654.474 83.5082L624.772 229.892C624.696 230.266 624.368 230.535 623.988 230.535H581.96C581.569 230.535 581.235 230.252 581.171 229.865L566.269 140.813L563.66 121.44C563.632 121.229 563.452 121.072 563.24 121.072C563.03 121.072 562.852 121.226 562.821 121.435L559.971 140.813L544.826 229.867C544.76 230.253 544.427 230.535 544.036 230.535H502.018C501.642 230.535 501.316 230.272 501.236 229.902L469.619 83.5181C469.511 83.0173 469.891 82.5441 470.402 82.5441H504.093C504.485 82.5441 504.82 82.8296 504.883 83.2183L520.51 179.341L523.36 198.479C523.391 198.687 523.569 198.842 523.779 198.842C523.985 198.842 524.162 198.692 524.197 198.488L543.882 83.212Z" stroke="black" stroke-width="3.2" mask="url(#path-4-outside-1_3490_69)"/>
<path d="M712.791 229.732C712.791 230.175 712.433 230.535 711.991 230.535H677.505C677.063 230.535 676.704 230.175 676.704 229.732V84.2785C676.704 83.8493 677.04 83.4959 677.467 83.4757L711.953 81.843C712.409 81.8214 712.791 82.187 712.791 82.6458V229.732ZM714.733 51.0972C714.733 61.6618 708.105 66.9341 694.874 66.9341C687.92 66.9341 682.836 65.7261 679.608 63.2835C676.373 60.8476 674.762 56.7766 674.762 51.0972C674.762 40.3591 681.45 35 694.874 35C708.105 34.9933 714.733 40.3591 714.733 51.0972Z" stroke="black" stroke-width="3.2" mask="url(#path-4-outside-1_3490_69)"/>
<path d="M831.083 155.568C831.083 138.663 829.227 127.251 825.521 121.318C821.809 115.378 815.578 112.408 806.874 112.408C796.614 112.408 789.218 116.331 784.707 124.176C784.638 124.297 784.602 124.434 784.602 124.573V189.986C784.602 190.121 784.636 190.254 784.701 190.372C789.208 198.527 796.354 202.631 806.145 202.631C814.544 202.631 820.795 199.368 824.898 192.868C829.041 186.387 831.083 173.941 831.083 155.568ZM867.402 156.542C867.402 182.069 862.848 201.163 853.727 213.837C844.605 226.517 831.812 232.857 815.353 232.857C802.577 232.857 792.471 229.274 785.088 222.127C784.935 221.98 784.714 221.927 784.512 221.993C784.274 222.072 784.115 222.298 784.122 222.549L784.602 241.873V266.196C784.602 266.64 784.243 267 783.801 267H749.786C749.344 267 748.985 266.64 748.985 266.196V84.388C748.985 83.9655 749.311 83.6152 749.731 83.5862L773.184 81.9652C773.5 81.9433 773.799 82.1106 773.947 82.3918L779.746 93.4231C779.994 93.8944 780.622 93.997 781.013 93.6368C790.717 84.7037 802.465 80.2341 816.32 80.2341C833.429 80.2341 846.216 85.9602 854.708 97.4124C863.166 108.878 867.402 128.586 867.402 156.542Z" stroke="black" stroke-width="3.2" mask="url(#path-4-outside-1_3490_69)"/>
<path d="M916.374 140.821C916.344 141.283 916.71 141.673 917.17 141.673H962.733C963.18 141.673 963.54 141.304 963.53 140.856C963.279 130.079 961.241 122.377 957.374 117.781C953.417 113.076 947.729 110.72 940.298 110.72C932.225 110.72 926.371 113.022 922.739 117.654C919.21 122.176 917.087 129.888 916.374 140.821ZM948.293 233.337C924.893 233.337 907.738 226.891 896.84 213.957C885.936 201.043 880.494 181.249 880.494 154.6C880.494 105.021 900.36 80.2341 940.046 80.2341C977.353 80.2341 996 102.978 996 148.5C996 155.3 995.694 160.994 995.128 165.588C995.079 165.988 994.739 166.286 994.338 166.286H917.905C917.448 166.286 917.083 166.673 917.11 167.131C917.838 179.696 920.931 188.558 926.371 193.722C931.953 199.014 940.709 201.65 952.654 201.65C964.428 201.65 975.983 199.491 987.305 195.196C987.791 195.012 988.323 195.328 988.391 195.845L992.053 223.732C992.098 224.075 991.919 224.41 991.607 224.558C979.285 230.417 964.849 233.337 948.293 233.337Z" stroke="black" stroke-width="3.2" mask="url(#path-4-outside-1_3490_69)"/>
<defs>
<filter id="filter0_d_3490_69" x="0" y="0" width="306" height="306" filterUnits="userSpaceOnUse" color-interpolation-filters="sRGB">
<feFlood flood-opacity="0" result="BackgroundImageFix"/>
<feColorMatrix in="SourceAlpha" type="matrix" values="0 0 0 0 0 0 0 0 0 0 0 0 0 0 0 0 0 0 127 0" result="hardAlpha"/>
<feOffset dy="1"/>
<feGaussianBlur stdDeviation="0.5"/>
<feComposite in2="hardAlpha" operator="out"/>
<feColorMatrix type="matrix" values="0 0 0 0 0 0 0 0 0 0 0 0 0 0 0 0 0 0 0.25 0"/>
<feBlend mode="normal" in2="BackgroundImageFix" result="effect1_dropShadow_3490_69"/>
<feBlend mode="normal" in="SourceGraphic" in2="effect1_dropShadow_3490_69" result="shape"/>
</filter>
</defs>
</svg>
